<mxfile host="app.diagrams.net" agent="Mozilla/5.0 (Windows NT 10.0; Win64; x64) AppleWebKit/537.36 (KHTML, like Gecko) Chrome/137.0.0.0 Safari/537.36 Edg/137.0.0.0" version="27.1.1">
  <diagram id="R2lEEEUBdFMjLlhIrx00" name="Page-1">
    <mxGraphModel dx="2084" dy="660" grid="1" gridSize="10" guides="1" tooltips="1" connect="1" arrows="1" fold="1" page="1" pageScale="1" pageWidth="850" pageHeight="1100" math="0" shadow="0" extFonts="Permanent Marker^https://fonts.googleapis.com/css?family=Permanent+Marker">
      <root>
        <mxCell id="0" />
        <mxCell id="1" parent="0" />
        <mxCell id="fmBvxDdyx4kbANdtMaFi-67" value="" style="rounded=0;whiteSpace=wrap;html=1;fillColor=none;" vertex="1" parent="1">
          <mxGeometry x="-400" y="145" width="1360" height="540" as="geometry" />
        </mxCell>
        <mxCell id="fmBvxDdyx4kbANdtMaFi-6" style="edgeStyle=orthogonalEdgeStyle;rounded=0;orthogonalLoop=1;jettySize=auto;html=1;exitX=1;exitY=0.5;exitDx=0;exitDy=0;entryX=0;entryY=0.5;entryDx=0;entryDy=0;endArrow=none;startFill=0;" edge="1" parent="1" source="fmBvxDdyx4kbANdtMaFi-34">
          <mxGeometry relative="1" as="geometry">
            <mxPoint x="460" y="520" as="targetPoint" />
            <Array as="points" />
          </mxGeometry>
        </mxCell>
        <mxCell id="fmBvxDdyx4kbANdtMaFi-21" style="edgeStyle=orthogonalEdgeStyle;rounded=0;orthogonalLoop=1;jettySize=auto;html=1;exitX=0;exitY=0.25;exitDx=0;exitDy=0;entryX=0.5;entryY=1;entryDx=0;entryDy=0;endArrow=none;startFill=0;" edge="1" parent="1" source="fmBvxDdyx4kbANdtMaFi-1" target="fmBvxDdyx4kbANdtMaFi-15">
          <mxGeometry relative="1" as="geometry" />
        </mxCell>
        <mxCell id="fmBvxDdyx4kbANdtMaFi-26" style="edgeStyle=orthogonalEdgeStyle;rounded=0;orthogonalLoop=1;jettySize=auto;html=1;exitX=1;exitY=0.25;exitDx=0;exitDy=0;entryX=0.407;entryY=1.059;entryDx=0;entryDy=0;entryPerimeter=0;endArrow=none;startFill=0;" edge="1" parent="1" source="fmBvxDdyx4kbANdtMaFi-1" target="fmBvxDdyx4kbANdtMaFi-17">
          <mxGeometry relative="1" as="geometry">
            <Array as="points">
              <mxPoint x="391" y="340" />
            </Array>
          </mxGeometry>
        </mxCell>
        <mxCell id="fmBvxDdyx4kbANdtMaFi-1" value="Produto" style="whiteSpace=wrap;html=1;align=center;" vertex="1" parent="1">
          <mxGeometry x="220" y="320" width="100" height="80" as="geometry" />
        </mxCell>
        <mxCell id="fmBvxDdyx4kbANdtMaFi-45" style="edgeStyle=orthogonalEdgeStyle;rounded=0;orthogonalLoop=1;jettySize=auto;html=1;exitX=0;exitY=1;exitDx=0;exitDy=0;entryX=1;entryY=0.5;entryDx=0;entryDy=0;endArrow=none;startFill=0;" edge="1" parent="1" source="fmBvxDdyx4kbANdtMaFi-2" target="fmBvxDdyx4kbANdtMaFi-37">
          <mxGeometry relative="1" as="geometry">
            <Array as="points">
              <mxPoint x="690" y="390" />
              <mxPoint x="690" y="400" />
            </Array>
          </mxGeometry>
        </mxCell>
        <mxCell id="fmBvxDdyx4kbANdtMaFi-46" style="edgeStyle=orthogonalEdgeStyle;rounded=0;orthogonalLoop=1;jettySize=auto;html=1;exitX=0.001;exitY=0.565;exitDx=0;exitDy=0;entryX=1;entryY=0.5;entryDx=0;entryDy=0;exitPerimeter=0;endArrow=none;startFill=0;" edge="1" parent="1" source="fmBvxDdyx4kbANdtMaFi-2" target="fmBvxDdyx4kbANdtMaFi-38">
          <mxGeometry relative="1" as="geometry">
            <Array as="points" />
          </mxGeometry>
        </mxCell>
        <mxCell id="fmBvxDdyx4kbANdtMaFi-48" style="edgeStyle=orthogonalEdgeStyle;rounded=0;orthogonalLoop=1;jettySize=auto;html=1;exitX=0.25;exitY=0;exitDx=0;exitDy=0;entryX=1;entryY=0.5;entryDx=0;entryDy=0;endArrow=none;startFill=0;" edge="1" parent="1" source="fmBvxDdyx4kbANdtMaFi-2" target="fmBvxDdyx4kbANdtMaFi-41">
          <mxGeometry relative="1" as="geometry">
            <Array as="points">
              <mxPoint x="690" y="310" />
              <mxPoint x="690" y="260" />
            </Array>
          </mxGeometry>
        </mxCell>
        <mxCell id="fmBvxDdyx4kbANdtMaFi-50" style="edgeStyle=orthogonalEdgeStyle;rounded=0;orthogonalLoop=1;jettySize=auto;html=1;exitX=1.002;exitY=0.557;exitDx=0;exitDy=0;entryX=0;entryY=0.5;entryDx=0;entryDy=0;exitPerimeter=0;endArrow=none;startFill=0;" edge="1" parent="1" source="fmBvxDdyx4kbANdtMaFi-2" target="fmBvxDdyx4kbANdtMaFi-39">
          <mxGeometry relative="1" as="geometry">
            <Array as="points" />
          </mxGeometry>
        </mxCell>
        <mxCell id="fmBvxDdyx4kbANdtMaFi-51" style="edgeStyle=orthogonalEdgeStyle;rounded=0;orthogonalLoop=1;jettySize=auto;html=1;exitX=1;exitY=0;exitDx=0;exitDy=0;entryX=0;entryY=0.5;entryDx=0;entryDy=0;endArrow=none;startFill=0;" edge="1" parent="1" source="fmBvxDdyx4kbANdtMaFi-2" target="fmBvxDdyx4kbANdtMaFi-42">
          <mxGeometry relative="1" as="geometry" />
        </mxCell>
        <mxCell id="fmBvxDdyx4kbANdtMaFi-52" style="edgeStyle=orthogonalEdgeStyle;rounded=0;orthogonalLoop=1;jettySize=auto;html=1;exitX=0.901;exitY=0.012;exitDx=0;exitDy=0;entryX=0;entryY=0.5;entryDx=0;entryDy=0;exitPerimeter=0;endArrow=none;startFill=0;" edge="1" parent="1" source="fmBvxDdyx4kbANdtMaFi-2" target="fmBvxDdyx4kbANdtMaFi-40">
          <mxGeometry relative="1" as="geometry" />
        </mxCell>
        <mxCell id="fmBvxDdyx4kbANdtMaFi-2" value="Compra" style="whiteSpace=wrap;html=1;align=center;" vertex="1" parent="1">
          <mxGeometry x="680" y="310" width="100" height="80" as="geometry" />
        </mxCell>
        <mxCell id="fmBvxDdyx4kbANdtMaFi-5" style="edgeStyle=orthogonalEdgeStyle;rounded=0;orthogonalLoop=1;jettySize=auto;html=1;exitX=1;exitY=0.5;exitDx=0;exitDy=0;entryX=0;entryY=0.5;entryDx=0;entryDy=0;endArrow=none;startFill=0;" edge="1" parent="1" source="fmBvxDdyx4kbANdtMaFi-28" target="fmBvxDdyx4kbANdtMaFi-1">
          <mxGeometry relative="1" as="geometry" />
        </mxCell>
        <mxCell id="fmBvxDdyx4kbANdtMaFi-13" style="edgeStyle=orthogonalEdgeStyle;rounded=0;orthogonalLoop=1;jettySize=auto;html=1;exitX=0;exitY=0.25;exitDx=0;exitDy=0;endArrow=none;startFill=0;" edge="1" parent="1" source="fmBvxDdyx4kbANdtMaFi-3" target="fmBvxDdyx4kbANdtMaFi-8">
          <mxGeometry relative="1" as="geometry" />
        </mxCell>
        <mxCell id="fmBvxDdyx4kbANdtMaFi-14" style="edgeStyle=orthogonalEdgeStyle;rounded=0;orthogonalLoop=1;jettySize=auto;html=1;exitX=0;exitY=0.75;exitDx=0;exitDy=0;endArrow=none;startFill=0;" edge="1" parent="1" source="fmBvxDdyx4kbANdtMaFi-3" target="fmBvxDdyx4kbANdtMaFi-9">
          <mxGeometry relative="1" as="geometry" />
        </mxCell>
        <mxCell id="fmBvxDdyx4kbANdtMaFi-3" value="Categoria" style="whiteSpace=wrap;html=1;align=center;" vertex="1" parent="1">
          <mxGeometry x="-190" y="320" width="100" height="80" as="geometry" />
        </mxCell>
        <mxCell id="fmBvxDdyx4kbANdtMaFi-7" style="edgeStyle=orthogonalEdgeStyle;rounded=0;orthogonalLoop=1;jettySize=auto;html=1;exitX=0;exitY=0.5;exitDx=0;exitDy=0;entryX=1;entryY=0.5;entryDx=0;entryDy=0;endArrow=none;startFill=0;" edge="1" parent="1" source="fmBvxDdyx4kbANdtMaFi-36">
          <mxGeometry relative="1" as="geometry">
            <mxPoint x="565" y="520" as="targetPoint" />
            <Array as="points" />
          </mxGeometry>
        </mxCell>
        <mxCell id="fmBvxDdyx4kbANdtMaFi-8" value="id_categoria" style="ellipse;whiteSpace=wrap;html=1;align=center;fontStyle=4;" vertex="1" parent="1">
          <mxGeometry x="-340" y="310" width="100" height="40" as="geometry" />
        </mxCell>
        <mxCell id="fmBvxDdyx4kbANdtMaFi-9" value="nome_categoria" style="ellipse;whiteSpace=wrap;html=1;align=center;" vertex="1" parent="1">
          <mxGeometry x="-340" y="370" width="100" height="40" as="geometry" />
        </mxCell>
        <mxCell id="fmBvxDdyx4kbANdtMaFi-15" value="id_produto" style="ellipse;whiteSpace=wrap;html=1;align=center;fontStyle=4;" vertex="1" parent="1">
          <mxGeometry x="110" y="260" width="100" height="40" as="geometry" />
        </mxCell>
        <mxCell id="fmBvxDdyx4kbANdtMaFi-25" style="edgeStyle=orthogonalEdgeStyle;rounded=0;orthogonalLoop=1;jettySize=auto;html=1;exitX=0.3;exitY=0.988;exitDx=0;exitDy=0;exitPerimeter=0;entryX=1;entryY=0;entryDx=0;entryDy=0;endArrow=none;startFill=0;" edge="1" parent="1" source="fmBvxDdyx4kbANdtMaFi-16" target="fmBvxDdyx4kbANdtMaFi-1">
          <mxGeometry relative="1" as="geometry">
            <mxPoint x="304.71428571428555" y="320" as="targetPoint" />
            <Array as="points" />
          </mxGeometry>
        </mxCell>
        <mxCell id="fmBvxDdyx4kbANdtMaFi-16" value="descricao" style="ellipse;whiteSpace=wrap;html=1;align=center;" vertex="1" parent="1">
          <mxGeometry x="290" y="220" width="100" height="40" as="geometry" />
        </mxCell>
        <mxCell id="fmBvxDdyx4kbANdtMaFi-17" value="estoque" style="ellipse;whiteSpace=wrap;html=1;align=center;" vertex="1" parent="1">
          <mxGeometry x="350" y="260" width="100" height="40" as="geometry" />
        </mxCell>
        <mxCell id="fmBvxDdyx4kbANdtMaFi-18" value="nome" style="ellipse;whiteSpace=wrap;html=1;align=center;" vertex="1" parent="1">
          <mxGeometry x="170" y="220" width="100" height="40" as="geometry" />
        </mxCell>
        <mxCell id="fmBvxDdyx4kbANdtMaFi-20" value="valor" style="ellipse;whiteSpace=wrap;html=1;align=center;" vertex="1" parent="1">
          <mxGeometry x="230" y="180" width="100" height="40" as="geometry" />
        </mxCell>
        <mxCell id="fmBvxDdyx4kbANdtMaFi-23" style="edgeStyle=orthogonalEdgeStyle;rounded=0;orthogonalLoop=1;jettySize=auto;html=1;exitX=0;exitY=0;exitDx=0;exitDy=0;entryX=0.5;entryY=1;entryDx=0;entryDy=0;endArrow=none;startFill=0;" edge="1" parent="1" source="fmBvxDdyx4kbANdtMaFi-1" target="fmBvxDdyx4kbANdtMaFi-18">
          <mxGeometry relative="1" as="geometry">
            <Array as="points">
              <mxPoint x="220" y="280" />
              <mxPoint x="220" y="280" />
            </Array>
          </mxGeometry>
        </mxCell>
        <mxCell id="fmBvxDdyx4kbANdtMaFi-24" style="edgeStyle=orthogonalEdgeStyle;rounded=0;orthogonalLoop=1;jettySize=auto;html=1;exitX=1;exitY=0;exitDx=0;exitDy=0;entryX=0.5;entryY=1;entryDx=0;entryDy=0;endArrow=none;startFill=0;" edge="1" parent="1" source="fmBvxDdyx4kbANdtMaFi-1" target="fmBvxDdyx4kbANdtMaFi-20">
          <mxGeometry relative="1" as="geometry">
            <Array as="points">
              <mxPoint x="280" y="320" />
            </Array>
          </mxGeometry>
        </mxCell>
        <mxCell id="fmBvxDdyx4kbANdtMaFi-29" value="" style="edgeStyle=orthogonalEdgeStyle;rounded=0;orthogonalLoop=1;jettySize=auto;html=1;exitX=1;exitY=0.5;exitDx=0;exitDy=0;entryX=0;entryY=0.5;entryDx=0;entryDy=0;endArrow=none;startFill=0;" edge="1" parent="1" source="fmBvxDdyx4kbANdtMaFi-3" target="fmBvxDdyx4kbANdtMaFi-28">
          <mxGeometry relative="1" as="geometry">
            <mxPoint x="-110" y="360" as="sourcePoint" />
            <mxPoint x="220" y="360" as="targetPoint" />
          </mxGeometry>
        </mxCell>
        <mxCell id="fmBvxDdyx4kbANdtMaFi-28" value="prod_categoria" style="shape=rhombus;perimeter=rhombusPerimeter;whiteSpace=wrap;html=1;align=center;" vertex="1" parent="1">
          <mxGeometry x="-10" y="330" width="120" height="60" as="geometry" />
        </mxCell>
        <mxCell id="fmBvxDdyx4kbANdtMaFi-30" value="1" style="text;html=1;align=center;verticalAlign=middle;resizable=0;points=[];autosize=1;strokeColor=none;fillColor=none;" vertex="1" parent="1">
          <mxGeometry x="-90" y="360" width="30" height="30" as="geometry" />
        </mxCell>
        <mxCell id="fmBvxDdyx4kbANdtMaFi-31" value="N" style="text;html=1;align=center;verticalAlign=middle;resizable=0;points=[];autosize=1;strokeColor=none;fillColor=none;" vertex="1" parent="1">
          <mxGeometry x="190" y="360" width="30" height="30" as="geometry" />
        </mxCell>
        <mxCell id="fmBvxDdyx4kbANdtMaFi-56" style="edgeStyle=orthogonalEdgeStyle;rounded=0;orthogonalLoop=1;jettySize=auto;html=1;exitX=0.298;exitY=1.042;exitDx=0;exitDy=0;entryX=0.5;entryY=0;entryDx=0;entryDy=0;endArrow=none;startFill=0;exitPerimeter=0;" edge="1" parent="1" source="fmBvxDdyx4kbANdtMaFi-32" target="fmBvxDdyx4kbANdtMaFi-54">
          <mxGeometry relative="1" as="geometry" />
        </mxCell>
        <mxCell id="fmBvxDdyx4kbANdtMaFi-58" style="edgeStyle=orthogonalEdgeStyle;rounded=0;orthogonalLoop=1;jettySize=auto;html=1;exitX=0.75;exitY=1;exitDx=0;exitDy=0;entryX=0.5;entryY=0;entryDx=0;entryDy=0;endArrow=none;startFill=0;" edge="1" parent="1" source="fmBvxDdyx4kbANdtMaFi-32" target="fmBvxDdyx4kbANdtMaFi-55">
          <mxGeometry relative="1" as="geometry" />
        </mxCell>
        <mxCell id="fmBvxDdyx4kbANdtMaFi-32" value="produto_compra" style="shape=associativeEntity;whiteSpace=wrap;html=1;align=center;" vertex="1" parent="1">
          <mxGeometry x="425" y="490" width="140" height="60" as="geometry" />
        </mxCell>
        <mxCell id="fmBvxDdyx4kbANdtMaFi-33" value="" style="edgeStyle=orthogonalEdgeStyle;rounded=0;orthogonalLoop=1;jettySize=auto;html=1;exitX=0.5;exitY=1;exitDx=0;exitDy=0;entryX=0.5;entryY=0;entryDx=0;entryDy=0;endArrow=none;startFill=0;" edge="1" parent="1" source="fmBvxDdyx4kbANdtMaFi-1" target="fmBvxDdyx4kbANdtMaFi-34">
          <mxGeometry relative="1" as="geometry">
            <mxPoint x="270" y="400" as="sourcePoint" />
            <mxPoint x="460" y="520" as="targetPoint" />
            <Array as="points" />
          </mxGeometry>
        </mxCell>
        <mxCell id="fmBvxDdyx4kbANdtMaFi-34" value="participa" style="shape=rhombus;perimeter=rhombusPerimeter;whiteSpace=wrap;html=1;align=center;" vertex="1" parent="1">
          <mxGeometry x="210" y="490" width="120" height="60" as="geometry" />
        </mxCell>
        <mxCell id="fmBvxDdyx4kbANdtMaFi-35" value="" style="edgeStyle=orthogonalEdgeStyle;rounded=0;orthogonalLoop=1;jettySize=auto;html=1;exitX=0.5;exitY=1;exitDx=0;exitDy=0;entryX=0.5;entryY=0;entryDx=0;entryDy=0;endArrow=none;startFill=0;" edge="1" parent="1" source="fmBvxDdyx4kbANdtMaFi-2" target="fmBvxDdyx4kbANdtMaFi-36">
          <mxGeometry relative="1" as="geometry">
            <mxPoint x="730" y="390" as="sourcePoint" />
            <mxPoint x="565" y="520" as="targetPoint" />
            <Array as="points" />
          </mxGeometry>
        </mxCell>
        <mxCell id="fmBvxDdyx4kbANdtMaFi-36" value="pertence" style="shape=rhombus;perimeter=rhombusPerimeter;whiteSpace=wrap;html=1;align=center;" vertex="1" parent="1">
          <mxGeometry x="670" y="490" width="120" height="60" as="geometry" />
        </mxCell>
        <mxCell id="fmBvxDdyx4kbANdtMaFi-37" value="id_compra" style="ellipse;whiteSpace=wrap;html=1;align=center;fontStyle=4;" vertex="1" parent="1">
          <mxGeometry x="550" y="380" width="100" height="40" as="geometry" />
        </mxCell>
        <mxCell id="fmBvxDdyx4kbANdtMaFi-38" value="valor_total" style="ellipse;whiteSpace=wrap;html=1;align=center;" vertex="1" parent="1">
          <mxGeometry x="550" y="335" width="100" height="40" as="geometry" />
        </mxCell>
        <mxCell id="fmBvxDdyx4kbANdtMaFi-39" value="telefone" style="ellipse;whiteSpace=wrap;html=1;align=center;" vertex="1" parent="1">
          <mxGeometry x="810" y="335" width="100" height="40" as="geometry" />
        </mxCell>
        <mxCell id="fmBvxDdyx4kbANdtMaFi-40" value="tipoEntrega" style="ellipse;whiteSpace=wrap;html=1;align=center;" vertex="1" parent="1">
          <mxGeometry x="810" y="240" width="100" height="40" as="geometry" />
        </mxCell>
        <mxCell id="fmBvxDdyx4kbANdtMaFi-41" value="status" style="ellipse;whiteSpace=wrap;html=1;align=center;" vertex="1" parent="1">
          <mxGeometry x="550" y="240" width="100" height="40" as="geometry" />
        </mxCell>
        <mxCell id="fmBvxDdyx4kbANdtMaFi-42" value="endereço" style="ellipse;whiteSpace=wrap;html=1;align=center;" vertex="1" parent="1">
          <mxGeometry x="810" y="290" width="100" height="40" as="geometry" />
        </mxCell>
        <mxCell id="fmBvxDdyx4kbANdtMaFi-43" value="formaPagamento" style="ellipse;whiteSpace=wrap;html=1;align=center;" vertex="1" parent="1">
          <mxGeometry x="810" y="380" width="100" height="40" as="geometry" />
        </mxCell>
        <mxCell id="fmBvxDdyx4kbANdtMaFi-44" value="data_compra" style="ellipse;whiteSpace=wrap;html=1;align=center;" vertex="1" parent="1">
          <mxGeometry x="550" y="290" width="100" height="40" as="geometry" />
        </mxCell>
        <mxCell id="fmBvxDdyx4kbANdtMaFi-47" style="edgeStyle=orthogonalEdgeStyle;rounded=0;orthogonalLoop=1;jettySize=auto;html=1;exitX=0;exitY=0;exitDx=0;exitDy=0;entryX=1.026;entryY=0.487;entryDx=0;entryDy=0;entryPerimeter=0;endArrow=none;startFill=0;" edge="1" parent="1" source="fmBvxDdyx4kbANdtMaFi-2" target="fmBvxDdyx4kbANdtMaFi-44">
          <mxGeometry relative="1" as="geometry" />
        </mxCell>
        <mxCell id="fmBvxDdyx4kbANdtMaFi-49" style="edgeStyle=orthogonalEdgeStyle;rounded=0;orthogonalLoop=1;jettySize=auto;html=1;exitX=0.918;exitY=1.004;exitDx=0;exitDy=0;entryX=-0.011;entryY=0.568;entryDx=0;entryDy=0;entryPerimeter=0;exitPerimeter=0;endArrow=none;startFill=0;" edge="1" parent="1" source="fmBvxDdyx4kbANdtMaFi-2" target="fmBvxDdyx4kbANdtMaFi-43">
          <mxGeometry relative="1" as="geometry">
            <Array as="points">
              <mxPoint x="772" y="403" />
              <mxPoint x="774" y="403" />
            </Array>
          </mxGeometry>
        </mxCell>
        <mxCell id="fmBvxDdyx4kbANdtMaFi-54" value="quantidade" style="ellipse;whiteSpace=wrap;html=1;align=center;" vertex="1" parent="1">
          <mxGeometry x="395" y="600" width="100" height="40" as="geometry" />
        </mxCell>
        <mxCell id="fmBvxDdyx4kbANdtMaFi-55" value="valor_unit" style="ellipse;whiteSpace=wrap;html=1;align=center;" vertex="1" parent="1">
          <mxGeometry x="500" y="600" width="100" height="40" as="geometry" />
        </mxCell>
        <mxCell id="fmBvxDdyx4kbANdtMaFi-62" value="1" style="text;html=1;align=center;verticalAlign=middle;resizable=0;points=[];autosize=1;strokeColor=none;fillColor=none;" vertex="1" parent="1">
          <mxGeometry x="270" y="400" width="30" height="30" as="geometry" />
        </mxCell>
        <mxCell id="fmBvxDdyx4kbANdtMaFi-63" value="N" style="text;html=1;align=center;verticalAlign=middle;resizable=0;points=[];autosize=1;strokeColor=none;fillColor=none;" vertex="1" parent="1">
          <mxGeometry x="395" y="490" width="30" height="30" as="geometry" />
        </mxCell>
        <mxCell id="fmBvxDdyx4kbANdtMaFi-64" value="N" style="text;html=1;align=center;verticalAlign=middle;resizable=0;points=[];autosize=1;strokeColor=none;fillColor=none;" vertex="1" parent="1">
          <mxGeometry x="565" y="490" width="30" height="30" as="geometry" />
        </mxCell>
        <mxCell id="fmBvxDdyx4kbANdtMaFi-65" value="1" style="text;html=1;align=center;verticalAlign=middle;resizable=0;points=[];autosize=1;strokeColor=none;fillColor=none;" vertex="1" parent="1">
          <mxGeometry x="700" y="390" width="30" height="30" as="geometry" />
        </mxCell>
      </root>
    </mxGraphModel>
  </diagram>
</mxfile>
